<svg width="35" height="35" viewBox="0 0 35 35" fill="none" xmlns="http://www.w3.org/2000/svg">
<path d="M29.5313 5.81055H27.4805C27.3301 5.81055 27.207 5.93359 27.207 6.08398V23.7891H10.5957V21.2939C10.5957 21.0649 10.3291 20.9351 10.1514 21.0786L5.30127 24.9067C5.26859 24.9323 5.24216 24.965 5.22398 25.0023C5.2058 25.0396 5.19636 25.0806 5.19636 25.1221C5.19636 25.1636 5.2058 25.2045 5.22398 25.2418C5.24216 25.2791 5.26859 25.3118 5.30127 25.3374L10.1514 29.1655C10.3325 29.3091 10.5957 29.1792 10.5957 28.9502V26.3867H27.6172C28.8237 26.3867 29.8047 25.4058 29.8047 24.1992V6.08398C29.8047 5.93359 29.6816 5.81055 29.5313 5.81055Z" fill="white"/>
</svg>
