<svg width="45" height="45" viewBox="0 0 45 45" fill="none" xmlns="http://www.w3.org/2000/svg">
<path d="M4.05937 36.6581C4.40812 37.1831 4.995 37.5 5.625 37.5H33.75C34.5 37.5 35.1788 37.0537 35.4731 36.3637L41.0981 23.2388C41.2214 22.9536 41.2717 22.6423 41.2446 22.3329C41.2175 22.0234 41.1138 21.7256 40.9428 21.4663C40.7718 21.207 40.539 20.9943 40.2653 20.8474C39.9916 20.7005 39.6856 20.6241 39.375 20.625H37.5V15C37.5 12.9319 35.8181 11.25 33.75 11.25H21.2719L16.4794 7.5H7.5C5.43188 7.5 3.75 9.18187 3.75 11.25V35.625H3.76312C3.75895 35.9909 3.86193 36.35 4.05937 36.6581V36.6581ZM33.75 15V20.625H11.25C10.5 20.625 9.82125 21.0712 9.52688 21.7612L7.5 26.4919V15H33.75Z" fill="#333333"/>
</svg>
