<svg width="30" height="30" viewBox="0 0 30 30" fill="none" xmlns="http://www.w3.org/2000/svg">
<path d="M20.13 3.59003C19.7171 3.17709 19.2134 2.8663 18.6591 2.68243C18.1048 2.49855 17.5152 2.44668 16.9373 2.53093C16.3595 2.61519 15.8092 2.83324 15.3305 3.16772C14.8518 3.50221 14.4579 3.94387 14.18 4.45753L10.3625 11.52L4.5375 13.84C4.34513 13.9165 4.17476 14.0396 4.04171 14.1982C3.90865 14.3568 3.81706 14.5459 3.77518 14.7487C3.73329 14.9514 3.74241 15.1614 3.80173 15.3597C3.86104 15.5581 3.96869 15.7386 4.115 15.885L8.2325 20.0025L2.8675 25.3675L2.5 27.5025L4.635 27.135L10 21.77L14.115 25.885C14.2613 26.0314 14.4416 26.1392 14.6398 26.1987C14.838 26.2581 15.0479 26.2675 15.2506 26.2259C15.4533 26.1842 15.6425 26.0929 15.8013 25.9601C15.96 25.8273 16.0832 25.6572 16.16 25.465L18.4925 19.635L25.545 15.82C26.0587 15.5422 26.5003 15.1482 26.8348 14.6695C27.1693 14.1908 27.3873 13.6406 27.4716 13.0627C27.5559 12.4848 27.504 11.8952 27.3201 11.3409C27.1362 10.7867 26.8254 10.283 26.4125 9.87003L20.13 3.59003ZM16.38 5.64503C16.4728 5.47408 16.6042 5.32715 16.7638 5.21592C16.9234 5.10469 17.1067 5.03223 17.2992 5.00431C17.4917 4.9764 17.688 4.99379 17.8726 5.05511C18.0572 5.11643 18.225 5.21998 18.3625 5.35753L24.645 11.64C24.7824 11.7777 24.8858 11.9456 24.947 12.1303C25.0081 12.3151 25.0253 12.5115 24.9971 12.704C24.969 12.8965 24.8962 13.0798 24.7848 13.2393C24.6733 13.3987 24.5261 13.53 24.355 13.6225L16.905 17.65C16.6483 17.7892 16.4484 18.0139 16.34 18.285L14.5425 22.775L7.2275 15.46L11.71 13.6725C11.9812 13.5642 12.2058 13.3643 12.345 13.1075L16.38 5.64503Z" fill="white"/>
</svg>
