<svg width="45" height="45" viewBox="0 0 45 45" fill="none" xmlns="http://www.w3.org/2000/svg">
<circle cx="22.5" cy="22.5" r="22.5" fill="#D9D9D9"/>
<path d="M32.7419 29.7581C32.0588 29.1039 31.3941 28.4308 30.7483 27.7398C30.2058 27.1885 29.8792 26.7875 29.8792 26.7875L25.7958 24.8377C27.4306 22.9836 28.3328 20.5969 28.3333 18.125C28.3333 12.4973 23.7542 7.91667 18.125 7.91667C12.4958 7.91667 7.91666 12.4973 7.91666 18.125C7.91666 23.7527 12.4958 28.3333 18.125 28.3333C20.696 28.3333 23.0396 27.3708 24.8377 25.7973L26.7875 29.8806C26.7875 29.8806 27.1885 30.2073 27.7398 30.7498C28.3042 31.2792 29.0464 31.9952 29.7581 32.7433L31.7385 34.7733L32.6194 35.7154L35.7125 32.6223L34.7704 31.7415C34.2177 31.199 33.4798 30.4785 32.7419 29.7581V29.7581ZM18.125 25.4167C14.1044 25.4167 10.8333 22.1456 10.8333 18.125C10.8333 14.1044 14.1044 10.8333 18.125 10.8333C22.1456 10.8333 25.4167 14.1044 25.4167 18.125C25.4167 22.1456 22.1456 25.4167 18.125 25.4167Z" fill="#333333"/>
</svg>
