<svg width="30" height="30" viewBox="0 0 30 30" fill="none" xmlns="http://www.w3.org/2000/svg">
<path d="M5.62494 17.8125C4.87902 17.8125 4.16365 17.5162 3.6362 16.9887C3.10876 16.4613 2.81244 15.7459 2.81244 15C2.81244 14.2541 3.10876 13.5387 3.6362 13.0113C4.16365 12.4838 4.87902 12.1875 5.62494 12.1875C6.37086 12.1875 7.08623 12.4838 7.61368 13.0113C8.14112 13.5387 8.43744 14.2541 8.43744 15C8.43744 15.7459 8.14112 16.4613 7.61368 16.9887C7.08623 17.5162 6.37086 17.8125 5.62494 17.8125ZM14.9999 17.8125C14.254 17.8125 13.5386 17.5162 13.0112 16.9887C12.4838 16.4613 12.1874 15.7459 12.1874 15C12.1874 14.2541 12.4838 13.5387 13.0112 13.0113C13.5386 12.4838 14.254 12.1875 14.9999 12.1875C15.7459 12.1875 16.4612 12.4838 16.9887 13.0113C17.5161 13.5387 17.8124 14.2541 17.8124 15C17.8124 15.7459 17.5161 16.4613 16.9887 16.9887C16.4612 17.5162 15.7459 17.8125 14.9999 17.8125ZM24.3749 17.8125C23.629 17.8125 22.9136 17.5162 22.3862 16.9887C21.8588 16.4613 21.5624 15.7459 21.5624 15C21.5624 14.2541 21.8588 13.5387 22.3862 13.0113C22.9136 12.4838 23.629 12.1875 24.3749 12.1875C25.1209 12.1875 25.8362 12.4838 26.3637 13.0113C26.8911 13.5387 27.1874 14.2541 27.1874 15C27.1874 15.7459 26.8911 16.4613 26.3637 16.9887C25.8362 17.5162 25.1209 17.8125 24.3749 17.8125Z" fill="white"/>
</svg>
