<svg width="173" height="120" viewBox="0 0 173 120" fill="none" xmlns="http://www.w3.org/2000/svg">
<path d="M72.08 31.36V88H54.4V59.76L45.68 88H30.48L21.76 59.76V88H4V31.36H25.76L38.24 65.36L50.4 31.36H72.08Z" fill="#156EC0" fill-opacity="0.5"/>
<path d="M122.08 31.36V88H104.4V59.76L95.68 88H80.48L71.76 59.76V88H54V31.36H75.76L88.24 65.36L100.4 31.36H122.08Z" fill="#156EC0"/>
<path d="M150.174 88.56C145.907 88.56 142.12 87.8667 138.814 86.48C135.56 85.0933 132.974 83.1733 131.054 80.72C129.134 78.2667 128.04 75.4933 127.774 72.4H144.814C145.027 73.7333 145.587 74.72 146.494 75.36C147.454 76 148.654 76.32 150.094 76.32C151 76.32 151.72 76.1333 152.254 75.76C152.787 75.3333 153.054 74.8267 153.054 74.24C153.054 73.2267 152.494 72.5067 151.374 72.08C150.254 71.6533 148.36 71.1733 145.694 70.64C142.44 70 139.747 69.3067 137.614 68.56C135.534 67.8133 133.694 66.5333 132.094 64.72C130.547 62.9067 129.774 60.4 129.774 57.2C129.774 54.4267 130.494 51.92 131.934 49.68C133.427 47.3867 135.614 45.6 138.494 44.32C141.374 42.9867 144.867 42.32 148.974 42.32C155.054 42.32 159.8 43.8133 163.214 46.8C166.68 49.7867 168.76 53.68 169.454 58.48H153.694C153.427 57.2533 152.867 56.32 152.014 55.68C151.16 54.9867 150.014 54.64 148.574 54.64C147.667 54.64 146.974 54.8267 146.494 55.2C146.014 55.52 145.774 56.0267 145.774 56.72C145.774 57.6267 146.334 58.32 147.454 58.8C148.574 59.2267 150.36 59.68 152.814 60.16C156.067 60.8 158.814 61.52 161.054 62.32C163.294 63.12 165.24 64.5067 166.894 66.48C168.547 68.4 169.374 71.0667 169.374 74.48C169.374 77.1467 168.6 79.5467 167.054 81.68C165.507 83.8133 163.267 85.4933 160.334 86.72C157.454 87.9467 154.067 88.56 150.174 88.56Z" fill="#0085FF"/>
</svg>
